<?xml version="1.0" ?><!DOCTYPE svg  PUBLIC '-//W3C//DTD SVG 1.1//EN'  'http://www.w3.org/Graphics/SVG/1.1/DTD/svg11.dtd'><svg style="enable-background:new 0 0 2000 2000;" version="1.1" viewBox="0 0 2000 2000" xml:space="preserve" xmlns="http://www.w3.org/2000/svg" xmlns:xlink="http://www.w3.org/1999/xlink"><style type="text/css">
	.st0{display:none;}
	.st1{display:inline;}
	.st2{fill:none;stroke:#231F20;stroke-width:2;stroke-miterlimit:10;}
	.st3{fill:#E96F7B;}
	.st4{fill:#F0867E;}
	.st5{fill:#5F6161;}
	.st6{fill:#F2F3F0;}
	.st7{fill:#7A7FBD;}
	.st8{fill:#85AFDC;}
	.st9{fill:#2D0D1B;}
	.st10{fill:#D5D8CB;}
	.st11{fill:#484C4C;}
	.st12{fill:#937CB8;}
	.st13{fill:#7F60A9;}
	.st14{fill:#999999;}
	.st15{fill:#FFFFFF;}
	.st16{fill:#004AF1;}
	.st17{fill:#3EE2D7;}
</style><g><g class="st0" id="Layer_3"><g class="st1"><rect class="st2" height="1000" width="1000" x="500" y="500"/><rect class="st2" height="706.7" width="706.7" x="646.6" y="646.6"/><circle class="st2" cx="1000" cy="1000" r="500"/><circle class="st2" cx="1000" cy="1000" r="348.7"/><line class="st2" x1="500" x2="1500" y1="500" y2="1500"/><line class="st2" x1="1500" x2="500" y1="500" y2="1500"/><line class="st2" x1="1000" x2="1000" y1="497.4" y2="1500"/><line class="st2" x1="1501.3" x2="498.7" y1="998.7" y2="998.7"/></g></g><g class="st0" id="bg"/><g id="object"><g><path class="st3" d="M1384.8,1117.6h-21.1l-88.5,364.1h-99.4l103-423.8c2.8-11.5,9.6-21.2,18.7-27.7c2.9,0.6,6,0.9,9.1,0.9h58.5      l5.6,24.7L1384.8,1117.6z"/><path class="st4" d="M1384.8,1117.6h-21.1l-88.5,364.1h-68.6l96.9-399.1c2.8-11.5,9.6-21.2,18.7-27.7c2.9,0.6,6,0.9,9.1,0.9      h39.4L1384.8,1117.6z"/><path class="st3" d="M1889.9,1481.6h-99.4l-84.6-340.9l-5.7-23.2H1497l-19.8-86.5h290.4c7.5,5.7,13.4,13.7,16.4,23.1      c0.3,1.1,0.6,2.3,1,3.5l25,100.9L1889.9,1481.6z"/><path class="st4" d="M1889.9,1481.6H1808l-80.4-323.9c-2.5-10-11.4-16.9-21.7-16.9h0l-5.7-23.2h-185.4l-0.9-4      c-6.9-30.4,16.2-59.4,47.4-59.4h219.1c1.6,1.2,2.9,2.3,4.5,3.5l25,100.9L1889.9,1481.6z"/><path class="st10" d="M1365.1,1031.1h-58.5c-3.1,0-6.2-0.3-9.1-0.9c-21.7-4.3-38.1-23.4-38.1-46.3v-0.1c0-9,2.6-17.5,7-24.6      c8.2-13.6,23.2-22.6,40.2-22.6h37L1365.1,1031.1z"/><path class="st6" d="M1346,1031.1h-39.3c-3.1,0-6.2-0.3-9.1-0.9c-21.7-4.3-38.1-23.4-38.1-46.3v-0.1c0-9,2.6-17.5,7-24.6      c7.2-4.4,15.6-7,24.6-7l0,0c21.6,0,40.4,15,45.2,36.1L1346,1031.1z"/><path class="st10" d="M1816.5,983.8L1816.5,983.8c0,26.2-21.1,47.3-47.2,47.3h-292.1l-21.6-94.5h313.8      c14.4,0,27.3,6.4,35.9,16.6C1812.3,961.3,1816.5,972.1,1816.5,983.8z"/><path class="st6" d="M1816.5,983.8L1816.5,983.8c0,26.2-21.1,47.3-47.2,47.3H1503l-6.3-27.7c-5.9-26,13.8-50.8,40.5-50.8h261.7      c2.2,0,4.3,0.2,6.4,0.5C1812.3,961.3,1816.5,972.1,1816.5,983.8z"/><path class="st8" d="M1961.1,538.7l-147.8,613.1c-0.6,2.7-1.9,5-3.4,6.8l-25-100.9c-2.7-10.9-8.9-20.2-17.4-26.6h1.8      c26.1,0,47.2-21.2,47.2-47.2v-0.1c0-26.1-21.2-47.2-47.2-47.2h-5.1L1866,515.7c2.7-10.9,8.9-20.3,17.3-27      c8.4-6.6,19-10.5,30.3-10.5C1945.2,478.3,1968.5,507.9,1961.1,538.7z"/><polygon class="st10" points="773.3,681.7 326.8,681.7 326.8,558.4 650,558.4     "/><path class="st6" d="M719.1,681.7H326.8v-96.1h259.1c23.6,0,46.3,9.4,63,26.1L719.1,681.7z"/><polygon class="st10" points="1686.5,558.4 1686.5,681.7 1251.4,681.7 1374.8,558.4     "/><path class="st6" d="M1686.5,580.5v101.2h-390.8l67.6-67.6c21.5-21.5,50.6-33.6,81-33.6H1686.5z"/><polygon class="st4" points="773.3,681.7 927.5,836 680.2,836 715.4,681.7     "/><polygon class="st4" points="1320.7,836 1097.1,836 1251.4,681.7 1285.5,681.7     "/><polygon class="st11" points="1586.3,1507.8 1473.6,1507.8 1384.8,1117.6 1365.1,1031.1 1343.6,936.5 1320.7,836 1285.5,681.7       1397.2,681.7 1405.3,716.9 1455.5,936.5 1477.2,1031.1 1497,1117.6     "/><path class="st5" d="M1586.3,1507.8h-80.5l-144.9-636.6l-17.5-76.8c-9-39.7,21.1-77.5,61.8-77.5h0L1586.3,1507.8z"/><path class="st3" d="M616.1,1117.6h21.1l88.5,364.1h99.4l-103-423.8c-2.8-11.5-9.6-21.2-18.7-27.7c-2.9,0.6-6,0.9-9.1,0.9h-58.5      l-5.6,24.7L616.1,1117.6z"/><path class="st4" d="M616.1,1117.6h21.1l88.5,364.1h68.6l-96.9-399.1c-2.8-11.5-9.6-21.2-18.7-27.7c-2.9,0.6-6,0.9-9.1,0.9      h-39.4L616.1,1117.6z"/><path class="st3" d="M111,1481.6h99.4l84.6-340.9l5.7-23.2H504l19.8-86.5H233.4c-7.5,5.7-13.4,13.7-16.4,23.1      c-0.3,1.1-0.6,2.3-1,3.5l-25,100.9L111,1481.6z"/><path class="st4" d="M111,1481.6h81.9l80.4-323.9c2.5-10,11.4-16.9,21.7-16.9h0l5.7-23.2h185.4l0.9-4      c6.9-30.4-16.2-59.4-47.4-59.4H220.6c-1.6,1.2-2.9,2.3-4.5,3.5l-25,100.9L111,1481.6z"/><path class="st10" d="M635.8,1031.1h58.5c3.1,0,6.2-0.3,9.1-0.9c21.7-4.3,38.1-23.4,38.1-46.3v-0.1c0-9-2.6-17.5-7-24.6      c-8.2-13.6-23.2-22.6-40.2-22.6h-37L635.8,1031.1z"/><path class="st6" d="M655,1031.1h39.3c3.1,0,6.2-0.3,9.1-0.9c21.7-4.3,38.1-23.4,38.1-46.3v-0.1c0-9-2.6-17.5-7-24.6      c-7.2-4.4-15.6-7-24.6-7h0c-21.6,0-40.4,15-45.2,36.1L655,1031.1z"/><path class="st10" d="M184.4,983.8L184.4,983.8c0,26.2,21.1,47.3,47.2,47.3h292.1l21.6-94.5H231.6c-14.4,0-27.3,6.4-35.9,16.6      C188.7,961.3,184.4,972.1,184.4,983.8z"/><path class="st6" d="M184.4,983.8L184.4,983.8c0,26.2,21.1,47.3,47.2,47.3h266.3l6.3-27.7c5.9-26-13.8-50.8-40.5-50.8H202.1      c-2.2,0-4.3,0.2-6.4,0.5C188.7,961.3,184.4,972.1,184.4,983.8z"/><path class="st8" d="M39.8,538.7l147.8,613.1c0.6,2.7,1.9,5,3.4,6.8l25-100.9c2.7-10.9,8.9-20.2,17.4-26.6h-1.8      c-26.1,0-47.2-21.2-47.2-47.2v-0.1c0-26.1,21.2-47.2,47.2-47.2h5.1L134.9,515.7c-2.7-10.9-8.9-20.3-17.3-27      c-8.4-6.6-19-10.5-30.3-10.5C55.8,478.3,32.4,507.9,39.8,538.7z"/><polygon class="st11" points="414.7,1507.8 527.3,1507.8 616.1,1117.6 635.8,1031.1 657.3,936.5 680.3,836 715.4,681.7       603.7,681.7 595.7,716.9 545.4,936.5 523.8,1031.1 504,1117.6     "/><path class="st5" d="M414.7,1507.8h80.5L640,871.2l17.5-76.8c9-39.7-21.1-77.5-61.8-77.5h0L414.7,1507.8z"/><polygon class="st12" points="1374.8,558.4 1251.4,681.7 1097.1,836 1012.3,920.8 927.5,836 773.3,681.7 650,558.4     "/><polygon class="st13" points="1228.3,558.4 1105,681.7 1012.1,774.7 919.2,681.7 795.8,558.4     "/><g><path class="st9" d="M1274.3,1496.3h-99.4c-4.7,0-9.2-2.2-12.1-5.9c-2.9-3.7-4-8.5-2.8-13.1l103-423.8       c3.6-14.8,12.4-27.7,24.6-36.5c3.4-2.5,7.7-3.4,11.9-2.6c2.1,0.4,4.1,0.6,6.2,0.6h58.5c7.2,0,13.4,5,15,11.9l19.7,86.5       c1,4.6-0.1,9.3-3,13c-2.9,3.7-7.3,5.8-12,5.8h-9l-85.6,352.3C1287.5,1491.4,1281.4,1496.3,1274.3,1496.3z M1194.5,1465.6h67.8       l85.6-352.3c1.7-6.9,7.8-11.7,14.9-11.7h1.8l-12.7-55.8h-46.2c-1.4,0-2.9-0.1-4.4-0.2c-4.1,4.2-7.1,9.4-8.5,15.2L1194.5,1465.6       z"/></g><g><path class="st9" d="M1889,1496.3h-99.4c-7.1,0-13.2-4.8-14.9-11.7l-84.6-340.9l-2.8-11.5H1496c-7.2,0-13.4-4.9-15-11.9       l-19.8-86.5c-1-4.6,0-9.3,3-13c2.9-3.7,7.3-5.8,12-5.8h290.4c3.4,0,6.6,1.1,9.3,3.1c10.2,7.8,17.7,18.4,21.7,30.6       c0.1,0.2,0.1,0.3,0.2,0.5c0.3,1.2,0.7,2.4,1,3.7c0,0.1,0.1,0.3,0.1,0.4l25,100.9l80,323c1.1,4.6,0.1,9.4-2.8,13.2       C1898.1,1494.1,1893.7,1496.3,1889,1496.3z M1801.6,1465.6h67.7l-75.3-304l-25-100.8c-0.3-1-0.5-2-0.8-2.9       c-1.5-4.6-4.1-8.8-7.5-12.2h-265.3l12.8,55.8h191.1c7.1,0,13.2,4.8,14.9,11.7l5.7,23.2L1801.6,1465.6z"/></g><g><path class="st9" d="M1364.2,1045.7h-58.5c-4,0-8-0.4-12-1.2c-29.3-5.8-50.6-31.6-50.6-61.4c0-11.6,3.2-22.9,9.3-32.8       c11.1-18.4,31.5-29.9,53.3-29.9h37c7.2,0,13.4,5,15,11.9l21.5,94.5c1,4.6-0.1,9.3-3,13       C1373.2,1043.6,1368.8,1045.7,1364.2,1045.7z M1305.7,951.2c-11.2,0-21.3,5.7-27.1,15.2c-3.2,5.1-4.8,10.8-4.8,16.7       c0,15.3,10.8,28.4,25.7,31.4c2,0.4,4.1,0.6,6.1,0.6h39.3l-14.5-63.8H1305.7z"/></g><g><path class="st9" d="M1768.4,1045.7h-292.1c-7.2,0-13.4-4.9-15-11.9l-21.6-94.5c-1-4.6,0-9.3,3-13s7.3-5.8,12-5.8h313.8       c18.4,0,35.7,8,47.6,22c9.6,11.2,15,25.6,15,40.6v0.1C1830.9,1017.7,1802.9,1045.7,1768.4,1045.7z M1488.5,1015h279.9       c17.6,0,31.9-14.3,31.9-31.9v-0.1c0-7.6-2.7-14.9-7.6-20.6c-6.1-7.2-14.9-11.2-24.3-11.2h-294.5L1488.5,1015z"/></g><g><path class="st9" d="M1960.2,538l-147.8,613.1c-0.6,2.7-1.9,5-3.4,6.8l-25-100.9c-2.7-10.9-8.9-20.2-17.4-26.6h1.8       c26.1,0,47.2-21.2,47.2-47.2v-0.1c0-26.1-21.2-47.2-47.2-47.2h-5.1L1865.1,515c2.7-10.9,8.9-20.3,17.3-27       c8.4-6.6,19-10.5,30.3-10.5C1944.2,477.6,1967.6,507.2,1960.2,538z"/></g><g><path class="st9" d="M772.3,696.4H325.8c-8.5,0-15.4-6.9-15.4-15.4V557.7c0-8.5,6.9-15.4,15.4-15.4H649c4.1,0,8,1.6,10.9,4.5       l123.3,123.3c4.4,4.4,5.7,11,3.3,16.7C784.1,692.7,778.5,696.4,772.3,696.4z M341.2,665.7h394.1l-92.6-92.6H341.2V665.7z"/></g><g><path class="st9" d="M1685.5,696.4h-435c-6.2,0-11.8-3.7-14.2-9.5c-2.4-5.7-1.1-12.3,3.3-16.7L1363,546.9       c2.9-2.9,6.8-4.5,10.9-4.5h311.7c8.5,0,15.4,6.9,15.4,15.4V681C1700.8,689.5,1694,696.4,1685.5,696.4z M1287.5,665.7h382.6       v-92.6h-290L1287.5,665.7z"/></g><g><path class="st9" d="M926.6,850.6H679.2c-4.7,0-9.1-2.1-12-5.8c-2.9-3.7-4-8.4-3-13l35.2-154.2c1.6-7,7.8-11.9,15-11.9h57.9       c4.1,0,8,1.6,10.9,4.5l154.2,154.2c4.4,4.4,5.7,11,3.3,16.7C938.4,846.9,932.8,850.6,926.6,850.6z M698.5,819.9h191L766,696.4       h-39.3L698.5,819.9z"/></g><g><path class="st9" d="M1319.7,850.6h-223.6c-6.2,0-11.8-3.7-14.2-9.5c-2.4-5.7-1.1-12.3,3.3-16.7l154.3-154.2       c2.9-2.9,6.8-4.5,10.9-4.5h34.1c7.2,0,13.4,5,15,11.9l35.2,154.2c1,4.6-0.1,9.3-3,13C1328.8,848.5,1324.4,850.6,1319.7,850.6z        M1133.2,819.9h167.3l-28.2-123.5h-15.5L1133.2,819.9z"/></g><g><path class="st9" d="M1585.3,1522.4h-112.6c-7.2,0-13.4-5-15-11.9l-88.8-390.2l-19.7-86.5l-21.5-94.5l-58.1-254.8       c-1-4.6,0.1-9.3,3-13c2.9-3.7,7.3-5.8,12-5.8h111.7c7.2,0,13.4,4.9,15,11.9l189.1,826c1,4.6,0,9.3-3,13       C1594.4,1520.3,1590,1522.4,1585.3,1522.4z M1484.9,1491.7h81.1l-126.4-552.5L1384,696.4h-80.2l53.8,236l21.5,94.5l19.7,86.5       L1484.9,1491.7z"/></g><g><path class="st9" d="M824.1,1496.3h-99.4c-7.1,0-13.2-4.8-14.9-11.7l-85.6-352.3h-9c-4.7,0-9.1-2.1-12-5.8c-2.9-3.7-4-8.4-3-13       l19.7-86.5c1.6-7,7.8-11.9,15-11.9h58.5c2,0,4.1-0.2,6.2-0.6c4.1-0.8,8.4,0.1,11.9,2.6c12.3,8.8,21,21.8,24.6,36.5l103,423.8       c1.1,4.6,0.1,9.4-2.8,13.1C833.3,1494.1,828.8,1496.3,824.1,1496.3z M736.8,1465.6h67.8l-98.4-404.8c-1.4-5.8-4.4-11-8.5-15.2       c-1.5,0.1-2.9,0.2-4.4,0.2h-46.2l-12.7,55.8h1.8c7.1,0,13.2,4.8,14.9,11.7L736.8,1465.6z"/></g><g><path class="st9" d="M209.4,1496.3h-99.4c-4.7,0-9.2-2.2-12.1-5.9c-2.9-3.7-3.9-8.6-2.8-13.2l80-323l25-100.9       c0-0.1,0-0.2,0.1-0.3c0.4-1.4,0.7-2.6,1-3.8c0-0.2,0.1-0.3,0.2-0.5c4-12.2,11.5-22.7,21.7-30.6c2.7-2,5.9-3.1,9.3-3.1h290.4       c4.7,0,9.1,2.1,12,5.8c2.9,3.7,4,8.4,3,13l-19.8,86.5c-1.6,7-7.8,11.9-15,11.9H311.7l-2.8,11.5l-84.6,340.9       C222.6,1491.5,216.5,1496.3,209.4,1496.3z M129.7,1465.6h67.7l81.7-329.2l5.7-23.1c1.7-6.9,7.8-11.7,14.9-11.7h191.1l12.8-55.8       H238.2c-3.4,3.5-5.9,7.6-7.5,12.2c-0.3,0.9-0.5,1.9-0.8,2.9l-25,100.7L129.7,1465.6z"/></g><g><path class="st9" d="M693.4,1045.7h-58.5c-4.7,0-9.1-2.1-12-5.8c-2.9-3.6-4-8.4-3-13l21.5-94.5c1.6-7,7.8-11.9,15-11.9h37       c21.7,0,42.2,11.5,53.4,30c6,9.7,9.2,21,9.2,32.6c0,29.9-21.3,55.7-50.5,61.5C701.4,1045.3,697.4,1045.7,693.4,1045.7z        M654.1,1015h39.3c2,0,4.1-0.2,6.2-0.6c14.9-2.9,25.7-16.1,25.7-31.3c0-5.9-1.6-11.6-4.7-16.6c-5.8-9.7-16-15.3-27.2-15.3       h-24.8L654.1,1015z"/></g><g><path class="st9" d="M522.8,1045.7H230.7c-34.5,0-62.6-28.1-62.6-62.6v-0.1c0-15,5.4-29.4,15.1-40.7       c11.8-13.9,29.1-21.9,47.5-21.9h313.8c4.7,0,9.1,2.1,12,5.8s4,8.4,3,13l-21.6,94.5C536.2,1040.8,530,1045.7,522.8,1045.7z        M230.7,951.2c-9.3,0-18.2,4.1-24.2,11.2c-5,5.8-7.7,13.1-7.7,20.7v0.1c0,17.6,14.3,31.9,31.9,31.9h279.9l14.6-63.8H230.7z"/></g><g><path class="st9" d="M38.9,538l147.8,613.1c0.6,2.7,1.9,5,3.4,6.8l25-100.9c2.7-10.9,8.9-20.2,17.4-26.6h-1.8       c-26.1,0-47.2-21.2-47.2-47.2v-0.1c0-26.1,21.2-47.2,47.2-47.2h5.1L134,515c-2.7-10.9-8.9-20.3-17.3-27       c-8.4-6.6-19-10.5-30.3-10.5C54.8,477.6,31.5,507.2,38.9,538z"/></g><g><path class="st9" d="M526.4,1522.4H413.7c-4.7,0-9.1-2.1-12-5.8c-2.9-3.7-4-8.4-3-13l130.7-571.2l58.3-254.8       c1.6-7,7.8-11.9,15-11.9h111.7c4.7,0,9.1,2.1,12,5.8c2.9,3.7,4,8.4,3,13l-58.1,254.8l-21.5,94.5l-19.7,86.5l-88.8,390.2       C539.7,1517.5,533.5,1522.4,526.4,1522.4z M433,1491.7h81.1l86.1-378.3l19.7-86.5l21.5-94.5l53.8-236H615L433,1491.7z"/></g><g><path class="st9" d="M1011.4,935.4c-3.9,0-7.9-1.5-10.9-4.5L638.1,568.6c-4.4-4.4-5.7-11-3.3-16.7c2.4-5.7,8-9.5,14.2-9.5       h724.8c6.2,0,11.8,3.7,14.2,9.5c2.4,5.7,1.1,12.3-3.3,16.7l-123.3,123.3L1107,846.1l-84.8,84.8       C1019.2,933.9,1015.3,935.4,1011.4,935.4z M686.1,573.1l325.3,325.3l73.9-73.9l154.3-154.2l97.1-97.1H686.1z"/></g></g></g></g></svg>