<!-- icon666.com - MILLIONS vector ICONS FREE --><svg version="1.1" id="Capa_1" xmlns="http://www.w3.org/2000/svg" xmlns:xlink="http://www.w3.org/1999/xlink" x="0px" y="0px" viewBox="0 0 496.122 496.122" style="enable-background:new 0 0 496.122 496.122;" xml:space="preserve"><g><g><path d="M192.123,264.061c0-13.6-10.4-24-24-24h-136v-56c10.4-7.2,16-19.2,16-32v-48c0-22.4-17.6-40-40-40c-4.8,0-8,3.2-8,8v112 c0,4.8,3.2,8,8,8c2.4,0,5.6,0,8-0.8v48.8h-8c-4.8,0-8,3.2-8,8v32c0,4.8,3.2,8,8,8h7.2l-15.2,135.2c-0.8,4,2.4,8,7.2,8.8h0.8h32 c4,0,7.2-3.2,8-7.2l6.4-56.8h83.2l6.4,56.8c0.8,4,4,7.2,8,7.2h32c4.8,0,8-3.2,8-8v-0.8l-15.2-136.8 C185.723,282.461,192.123,273.661,192.123,264.061z M16.123,81.661c9.6,3.2,16,12.8,16,22.4v48c0,10.4-6.4,19.2-16,22.4V81.661z M32.923,416.061h-16l1.6-16h16L32.923,416.061z M36.123,384.061h-16l10.4-96h16.8L36.123,384.061z M56.123,352.061l1.6-16h76 l1.6,16H56.123z M60.123,320.061l3.2-32h65.6l3.2,32H60.123z M144.923,288.061h16l10.4,96h-16L144.923,288.061z M159.323,416.061 l-1.6-16h16l1.6,16H159.323z M168.123,272.061h-152v-16h152c4.8,0,8,3.2,8,8S172.923,272.061,168.123,272.061z"></path></g></g><g><g><path d="M488.123,192.061c4.8,0,8-3.2,8-8v-112c0-4.8-3.2-8-8-8c-22.4,0-40,17.6-40,40v48c0,12.8,6.4,24.8,16,32v56h-136 c-13.6,0-24,11.2-24,24c0,9.6,6.4,18.4,15.2,22.4l-15.2,136.8c-0.8,4,2.4,8,7.2,8.8h0.8h32c4,0,7.2-3.2,8-7.2l6.4-56.8h83.2 l6.4,56.8c0.8,4,4,7.2,8,7.2h32c4.8,0,8-3.2,8-8v-0.8l-15.2-135.2h7.2c4.8,0,8-3.2,8-8v-32c0-4.8-3.2-8-8-8h-8v-48.8 C482.523,192.061,485.723,192.061,488.123,192.061z M336.923,416.061h-16l1.6-16h16L336.923,416.061z M340.123,384.061h-16 l10.4-96h16L340.123,384.061z M360.123,352.061l1.6-16h76l1.6,16H360.123z M363.323,320.061l3.2-32h65.6l4,32H363.323z M448.923,288.061h16l10.4,96h-16L448.923,288.061z M463.323,416.061l-1.6-16h16l1.6,16H463.323z M480.123,272.061h-152 c-4.8,0-8-3.2-8-8s3.2-8,8-8h152V272.061z M464.123,152.861v-48.8c0-10.4,6.4-19.2,16-22.4v93.6 C470.523,172.061,464.123,162.461,464.123,152.861z"></path></g></g><g><g><path d="M360.123,144.061h-224c-4.8,0-8,3.2-8,8v32c0,4.8,3.2,8,8,8h64v24c0,4.8,3.2,8,8,8h8v200c0,4.8,3.2,8,8,8h48 c4.8,0,8-3.2,8-8v-200h8c4.8,0,8-3.2,8-8v-24h64c4.8,0,8-3.2,8-8v-32C368.123,147.261,364.923,144.061,360.123,144.061z M264.123,416.061h-32v-16h32V416.061z M264.123,384.061h-32v-128h32V384.061z M264.123,240.061h-32v-16h32V240.061z M280.123,208.061h-64v-16h64V208.061z M352.123,176.061h-208v-16h208V176.061z"></path></g></g></svg>